<svg xmlns="http://www.w3.org/2000/svg" width="88" height="88" viewBox="0 0 88 88" fill="none"><g filter="url(#filter0_dd_12_3504)"><path d="M12 16C12 8.26801 18.268 2 26 2H62C69.732 2 76 8.26801 76 16V52C76 59.732 69.732 66 62 66H26C18.268 66 12 59.732 12 52V16Z" fill="url(#paint0_linear_12_3504)" shape-rendering="crispEdges"></path><path d="M50.6667 20.6665H37.3333C35.8606 20.6665 34.6667 21.8604 34.6667 23.3332V44.6665C34.6667 46.1393 35.8606 47.3332 37.3333 47.3332H50.6667C52.1394 47.3332 53.3333 46.1393 53.3333 44.6665V23.3332C53.3333 21.8604 52.1394 20.6665 50.6667 20.6665Z" stroke="white" stroke-width="2.66667" stroke-linecap="round" stroke-linejoin="round"></path><path d="M44 42H44.0133" stroke="white" stroke-width="2.66667" stroke-linecap="round" stroke-linejoin="round"></path></g><defs><filter id="filter0_dd_12_3504" x="0" y="0" width="88" height="88" filterUnits="userSpaceOnUse" color-interpolation-filters="sRGB"></filter><linearGradient id="paint0_linear_12_3504" x1="12" y1="2" x2="76" y2="66" gradientUnits="userSpaceOnUse"><stop stop-color="#009966"></stop><stop offset="1" stop-color="#00A63E"></stop></linearGradient></defs></svg>