<svg xmlns="http://www.w3.org/2000/svg" width="48" height="48" viewBox="0 0 48 48" fill="none"><path d="M0 24C0 10.7452 10.7452 0 24 0C37.2548 0 48 10.7452 48 24C48 37.2548 37.2548 48 24 48C10.7452 48 0 37.2548 0 24Z" fill="url(#paint0_linear_18_9907)"></path><path d="M16 25.9999C15.8108 26.0006 15.6252 25.9475 15.465 25.8469C15.3047 25.7463 15.1762 25.6023 15.0945 25.4316C15.0129 25.2609 14.9813 25.0705 15.0035 24.8826C15.0257 24.6946 15.1008 24.5169 15.22 24.3699L25.12 14.1699C25.1943 14.0842 25.2955 14.0263 25.407 14.0057C25.5185 13.985 25.6337 14.0029 25.7337 14.0564C25.8337 14.1099 25.9126 14.1958 25.9573 14.3C26.0021 14.4042 26.0101 14.5206 25.98 14.6299L24.06 20.6499C24.0034 20.8014 23.9844 20.9644 24.0046 21.1249C24.0248 21.2854 24.0837 21.4386 24.1761 21.5713C24.2685 21.7041 24.3918 21.8124 24.5353 21.8871C24.6788 21.9617 24.8382 22.0004 25 21.9999H32C32.1892 21.9993 32.3748 22.0523 32.535 22.1529C32.6953 22.2535 32.8238 22.3976 32.9055 22.5683C32.9871 22.739 33.0187 22.9293 32.9965 23.1173C32.9743 23.3052 32.8992 23.483 32.78 23.6299L22.88 33.8299C22.8057 33.9156 22.7045 33.9736 22.593 33.9942C22.4815 34.0148 22.3663 33.9969 22.2663 33.9434C22.1663 33.8899 22.0874 33.804 22.0427 33.6998C21.9979 33.5956 21.9899 33.4793 22.02 33.3699L23.94 27.3499C23.9966 27.1984 24.0156 27.0354 23.9954 26.8749C23.9752 26.7144 23.9163 26.5612 23.8239 26.4285C23.7315 26.2957 23.6082 26.1874 23.4647 26.1128C23.3212 26.0381 23.1618 25.9994 23 25.9999H16Z" stroke="#002C22" stroke-width="2" stroke-linecap="round" stroke-linejoin="round"></path><defs><linearGradient id="paint0_linear_18_9907" x1="0" y1="0" x2="48" y2="48" gradientUnits="userSpaceOnUse"><stop stop-color="#7CCF00"></stop><stop offset="1" stop-color="#5EA500"></stop></linearGradient></defs></svg>