<svg xmlns="http://www.w3.org/2000/svg" width="24" height="24" viewBox="0 0 24 24" fill="none"><path d="M0 12C0 5.37258 5.37258 0 12 0C18.6274 0 24 5.37258 24 12C24 18.6274 18.6274 24 12 24C5.37258 24 0 18.6274 0 12Z" fill="url(#paint0_linear_12_4282)"></path><path d="M10.008 16.5312C10.008 16.4272 9.988 16.3752 9.948 16.3752L9.672 16.5072C9.672 16.4512 9.64 16.4112 9.576 16.3872L9.48 16.3752C9.416 16.3752 9.336 16.4032 9.24 16.4592C9.224 16.4192 9.204 16.3792 9.18 16.3392C9.156 16.2992 9.136 16.2632 9.12 16.2312C9.016 16.0312 8.912 15.8112 8.808 15.5712C8.712 15.3232 8.62 15.0872 8.532 14.8632C8.452 14.6392 8.388 14.4632 8.34 14.3352C8.308 14.2312 8.272 14.0752 8.232 13.8672C8.192 13.6592 8.152 13.3952 8.112 13.0752C8.2 13.1312 8.268 13.1592 8.316 13.1592C8.372 13.1592 8.424 13.0752 8.472 12.9072C8.496 12.9392 8.54 12.9552 8.604 12.9552C8.652 12.9552 8.688 12.9392 8.712 12.9072L8.904 12.6192L9.12 12.6912H9.132C9.148 12.6912 9.164 12.6832 9.18 12.6672C9.196 12.6512 9.22 12.6352 9.252 12.6192C9.316 12.5792 9.364 12.5592 9.396 12.5592L9.432 12.5712C9.632 12.6672 9.76 12.8432 9.816 13.0992C9.96 13.7072 10.104 14.0112 10.248 14.0112C10.392 14.0112 10.56 13.8592 10.752 13.5552C10.848 13.4032 10.944 13.2272 11.04 13.0272C11.144 12.8272 11.248 12.6032 11.352 12.3552C11.368 12.4512 11.384 12.4992 11.4 12.4992C11.44 12.4992 11.508 12.3992 11.604 12.1992C11.708 11.9992 11.872 11.7232 12.096 11.3712C12.224 11.1552 12.384 10.9112 12.576 10.6392C12.776 10.3672 12.988 10.0872 13.212 9.79917C13.436 9.51117 13.652 9.23917 13.86 8.98317C14.076 8.72717 14.268 8.50717 14.436 8.32317C14.604 8.13917 14.728 8.01917 14.808 7.96317C15.112 7.75517 15.352 7.55517 15.528 7.36317C15.52 7.41917 15.508 7.47117 15.492 7.51917C15.484 7.55917 15.48 7.58717 15.48 7.60317C15.48 7.63517 15.496 7.65117 15.528 7.65117L15.864 7.48317V7.53117C15.864 7.59517 15.88 7.62717 15.912 7.62717C15.936 7.62717 15.984 7.59117 16.056 7.51917C16.128 7.44717 16.168 7.39517 16.176 7.36317L16.152 7.53117L16.56 7.29117L16.464 7.50717C16.592 7.41917 16.684 7.37517 16.74 7.37517C16.772 7.37517 16.796 7.39517 16.812 7.43517C16.828 7.46717 16.836 7.49917 16.836 7.53117C16.836 7.57917 16.816 7.63517 16.776 7.69917C16.736 7.76317 16.684 7.83917 16.62 7.92717C16.572 7.99117 16.492 8.08717 16.38 8.21517C16.276 8.33517 16.116 8.51517 15.9 8.75517C15.684 8.98717 15.396 9.31117 15.036 9.72717C14.94 9.83117 14.792 10.0152 14.592 10.2792C14.392 10.5352 14.164 10.8352 13.908 11.1792C13.66 11.5152 13.412 11.8552 13.164 12.1992C12.916 12.5432 12.696 12.8552 12.504 13.1352C12.312 13.4072 12.176 13.6112 12.096 13.7472L11.352 15.0072C11.192 15.2792 11.06 15.5032 10.956 15.6792C10.852 15.8472 10.772 15.9632 10.716 16.0272C10.596 16.1712 10.464 16.2992 10.32 16.4112L10.212 16.3512L10.116 16.4112L10.008 16.5312Z" fill="white"></path><defs><linearGradient id="paint0_linear_12_4282" x1="0" y1="0" x2="24" y2="24" gradientUnits="userSpaceOnUse"><stop stop-color="#155DFC"></stop><stop offset="1" stop-color="#4F39F6"></stop></linearGradient></defs></svg>