<svg xmlns="http://www.w3.org/2000/svg" width="12" height="12" viewBox="0 0 12 12" fill="none"><g opacity="0.708809"><path d="M2.44999 9.54995C0.499988 7.59995 0.499988 4.39995 2.44999 2.44995" stroke="#FB2C36" stroke-linecap="round" stroke-linejoin="round"></path><path d="M3.89998 8.09998C2.74998 6.94998 2.74998 5.04998 3.89998 3.84998" stroke="#FB2C36" stroke-linecap="round" stroke-linejoin="round"></path><path d="M6 7C6.55228 7 7 6.55228 7 6C7 5.44772 6.55228 5 6 5C5.44772 5 5 5.44772 5 6C5 6.55228 5.44772 7 6 7Z" stroke="#FB2C36" stroke-linecap="round" stroke-linejoin="round"></path><path d="M8.09998 3.90002C9.24998 5.05002 9.24998 6.95002 8.09998 8.15002" stroke="#FB2C36" stroke-linecap="round" stroke-linejoin="round"></path><path d="M9.54999 2.44995C11.5 4.39995 11.5 7.54995 9.54999 9.49995" stroke="#FB2C36" stroke-linecap="round" stroke-linejoin="round"></path></g></svg>