<svg xmlns="http://www.w3.org/2000/svg" width="16" height="16" viewBox="0 0 16 16" fill="none"><path d="M13.3333 5.33337H2.66667C2.29848 5.33337 2 5.63185 2 6.00004V7.33337C2 7.70156 2.29848 8.00004 2.66667 8.00004H13.3333C13.7015 8.00004 14 7.70156 14 7.33337V6.00004C14 5.63185 13.7015 5.33337 13.3333 5.33337Z" stroke="white" stroke-width="1.33333" stroke-linecap="round" stroke-linejoin="round"></path><path d="M8 5.33337V14" stroke="white" stroke-width="1.33333" stroke-linecap="round" stroke-linejoin="round"></path><path d="M12.6667 8V12.6667C12.6667 13.0203 12.5262 13.3594 12.2761 13.6095C12.0261 13.8595 11.6869 14 11.3333 14H4.66666C4.31304 14 3.9739 13.8595 3.72385 13.6095C3.4738 13.3594 3.33333 13.0203 3.33333 12.6667V8" stroke="white" stroke-width="1.33333" stroke-linecap="round" stroke-linejoin="round"></path><path d="M4.99999 5.33326C4.55797 5.33326 4.13404 5.15766 3.82148 4.8451C3.50892 4.53254 3.33333 4.10862 3.33333 3.66659C3.33333 3.22456 3.50892 2.80064 3.82148 2.48808C4.13404 2.17552 4.55797 1.99993 4.99999 1.99993C5.64312 1.98872 6.27334 2.30077 6.80849 2.89537C7.34363 3.48997 7.75885 4.33953 7.99999 5.33326C8.24114 4.33953 8.65636 3.48997 9.1915 2.89537C9.72664 2.30077 10.3569 1.98872 11 1.99993C11.442 1.99993 11.8659 2.17552 12.1785 2.48808C12.4911 2.80064 12.6667 3.22456 12.6667 3.66659C12.6667 4.10862 12.4911 4.53254 12.1785 4.8451C11.8659 5.15766 11.442 5.33326 11 5.33326" stroke="white" stroke-width="1.33333" stroke-linecap="round" stroke-linejoin="round"></path></svg>