<svg xmlns="http://www.w3.org/2000/svg" width="20" height="20" viewBox="0 0 20 20" fill="none"><g clip-path="url(#clip0_18_7135)"><path d="M18.1675 8.33332C18.5481 10.2011 18.2769 12.1428 17.399 13.8348C16.5212 15.5268 15.0899 16.8667 13.3438 17.6311C11.5976 18.3955 9.6422 18.5381 7.80359 18.0353C5.96498 17.5325 4.35433 16.4145 3.24024 14.8678C2.12614 13.3212 1.57594 11.4394 1.68139 9.53615C1.78684 7.63294 2.54157 5.8234 3.81972 4.4093C5.09786 2.9952 6.82216 2.06202 8.70506 1.76537C10.588 1.46872 12.5157 1.82654 14.1667 2.77916" stroke="#00A63E" stroke-width="1.66667" stroke-linecap="round" stroke-linejoin="round"></path><path d="M7.5 9.16671L10 11.6667L18.3333 3.33337" stroke="#00A63E" stroke-width="1.66667" stroke-linecap="round" stroke-linejoin="round"></path></g><defs><clipPath id="clip0_18_7135"><rect width="20" height="20" fill="white"></rect></clipPath></defs></svg>