<svg xmlns="http://www.w3.org/2000/svg" width="44" height="44" viewBox="0 0 44 44" fill="none"><path d="M0 10C0 4.47715 4.47715 0 10 0H34C39.5228 0 44 4.47715 44 10V34C44 39.5228 39.5228 44 34 44H10C4.47715 44 0 39.5228 0 34V10Z" fill="url(#paint0_linear_12_4812)"></path><g clip-path="url(#clip0_12_4812)"><path d="M17 19.5002H15.75C15.1975 19.5002 14.6676 19.2807 14.2769 18.89C13.8862 18.4993 13.6667 17.9694 13.6667 17.4168C13.6667 16.8643 13.8862 16.3344 14.2769 15.9437C14.6676 15.553 15.1975 15.3335 15.75 15.3335H17" stroke="white" stroke-width="1.66667" stroke-linecap="round" stroke-linejoin="round"></path><path d="M27 19.5002H28.25C28.8025 19.5002 29.3324 19.2807 29.7231 18.89C30.1138 18.4993 30.3333 17.9694 30.3333 17.4168C30.3333 16.8643 30.1138 16.3344 29.7231 15.9437C29.3324 15.553 28.8025 15.3335 28.25 15.3335H27" stroke="white" stroke-width="1.66667" stroke-linecap="round" stroke-linejoin="round"></path><path d="M15.3333 30.3335H28.6666" stroke="white" stroke-width="1.66667" stroke-linecap="round" stroke-linejoin="round"></path><path d="M20.3333 24.2168V26.1668C20.3333 26.6251 19.9416 26.9835 19.525 27.1751C18.5416 27.6251 17.8333 28.8668 17.8333 30.3335" stroke="white" stroke-width="1.66667" stroke-linecap="round" stroke-linejoin="round"></path><path d="M23.6667 24.2168V26.1668C23.6667 26.6251 24.0584 26.9835 24.475 27.1751C25.4584 27.6251 26.1667 28.8668 26.1667 30.3335" stroke="white" stroke-width="1.66667" stroke-linecap="round" stroke-linejoin="round"></path><path d="M27 13.6665H17V19.4998C17 20.8259 17.5268 22.0977 18.4645 23.0354C19.4021 23.9731 20.6739 24.4998 22 24.4998C23.3261 24.4998 24.5979 23.9731 25.5355 23.0354C26.4732 22.0977 27 20.8259 27 19.4998V13.6665Z" stroke="white" stroke-width="1.66667" stroke-linecap="round" stroke-linejoin="round"></path></g><defs><linearGradient id="paint0_linear_12_4812" x1="0" y1="0" x2="44" y2="44" gradientUnits="userSpaceOnUse"><stop stop-color="#009966"></stop><stop offset="1" stop-color="#00A63E"></stop></linearGradient><clipPath id="clip0_12_4812"><rect width="20" height="20" fill="white" transform="translate(12 12)"></rect></clipPath></defs></svg>