<svg xmlns="http://www.w3.org/2000/svg" width="32" height="32" viewBox="0 0 32 32" fill="none"><path d="M16 29.3333C23.3638 29.3333 29.3333 23.3638 29.3333 16C29.3333 8.63616 23.3638 2.66663 16 2.66663C8.63621 2.66663 2.66667 8.63616 2.66667 16C2.66667 23.3638 8.63621 29.3333 16 29.3333Z" stroke="#002C22" stroke-width="2.66667" stroke-linecap="round" stroke-linejoin="round"></path><path d="M16 24C20.4183 24 24 20.4183 24 16C24 11.5817 20.4183 8 16 8C11.5817 8 8 11.5817 8 16C8 20.4183 11.5817 24 16 24Z" stroke="#002C22" stroke-width="2.66667" stroke-linecap="round" stroke-linejoin="round"></path><path d="M16 18.6667C17.4728 18.6667 18.6667 17.4728 18.6667 16C18.6667 14.5273 17.4728 13.3334 16 13.3334C14.5272 13.3334 13.3333 14.5273 13.3333 16C13.3333 17.4728 14.5272 18.6667 16 18.6667Z" stroke="#002C22" stroke-width="2.66667" stroke-linecap="round" stroke-linejoin="round"></path></svg>