<svg xmlns="http://www.w3.org/2000/svg" width="32" height="32" viewBox="0 0 32 32" fill="none"><path d="M15.3667 3.05988C15.4251 2.94183 15.5154 2.84246 15.6273 2.77298C15.7392 2.7035 15.8683 2.66669 16 2.66669C16.1317 2.66669 16.2608 2.7035 16.3727 2.77298C16.4846 2.84246 16.5749 2.94183 16.6333 3.05988L19.7133 9.29855C19.9162 9.70917 20.2157 10.0644 20.5862 10.3338C20.9566 10.6032 21.3868 10.7787 21.84 10.8452L28.728 11.8532C28.8585 11.8721 28.9811 11.9272 29.082 12.0121C29.1828 12.0971 29.2579 12.2086 29.2987 12.334C29.3395 12.4594 29.3444 12.5938 29.3128 12.7218C29.2812 12.8498 29.2144 12.9665 29.12 13.0585L24.1387 17.9092C23.8102 18.2293 23.5644 18.6245 23.4224 19.0607C23.2805 19.4969 23.2467 19.9611 23.324 20.4132L24.5 27.2665C24.523 27.397 24.5089 27.5313 24.4593 27.6541C24.4097 27.777 24.3266 27.8834 24.2194 27.9612C24.1122 28.0391 23.9853 28.0852 23.8532 28.0944C23.721 28.1036 23.5889 28.0755 23.472 28.0132L17.3147 24.7759C16.909 24.5628 16.4576 24.4515 15.9993 24.4515C15.5411 24.4515 15.0897 24.5628 14.684 24.7759L8.528 28.0132C8.41111 28.0751 8.2792 28.1029 8.14727 28.0936C8.01534 28.0842 7.88869 28.038 7.78173 27.9602C7.67476 27.8824 7.59178 27.7761 7.54221 27.6535C7.49264 27.5309 7.47848 27.3968 7.50133 27.2665L8.676 20.4145C8.75359 19.9622 8.71998 19.4977 8.57805 19.0613C8.43612 18.6248 8.19014 18.2294 7.86133 17.9092L2.88 13.0599C2.78479 12.9679 2.71732 12.8511 2.68528 12.7226C2.65324 12.5942 2.65792 12.4594 2.69877 12.3335C2.73963 12.2076 2.81502 12.0957 2.91637 12.0105C3.01771 11.9254 3.14094 11.8704 3.272 11.8519L10.1587 10.8452C10.6123 10.7792 11.0432 10.604 11.4141 10.3345C11.785 10.0651 12.0849 9.70957 12.288 9.29855L15.3667 3.05988Z" stroke="#7CCF00" stroke-width="2.66667" stroke-linecap="round" stroke-linejoin="round"></path></svg>