<svg xmlns="http://www.w3.org/2000/svg" width="16" height="16" viewBox="0 0 16 16" fill="none"><path d="M10.6666 14V12.6667C10.6666 11.9594 10.3857 11.2811 9.8856 10.781C9.3855 10.281 8.70722 10 7.99998 10H3.99998C3.29274 10 2.61446 10.281 2.11436 10.781C1.61426 11.2811 1.33331 11.9594 1.33331 12.6667V14" stroke="#009966" stroke-width="1.33333" stroke-linecap="round" stroke-linejoin="round"></path><path d="M5.99998 7.33333C7.47274 7.33333 8.66665 6.13943 8.66665 4.66667C8.66665 3.19391 7.47274 2 5.99998 2C4.52722 2 3.33331 3.19391 3.33331 4.66667C3.33331 6.13943 4.52722 7.33333 5.99998 7.33333Z" stroke="#009966" stroke-width="1.33333" stroke-linecap="round" stroke-linejoin="round"></path><path d="M14.6667 13.9999V12.6666C14.6662 12.0758 14.4696 11.5018 14.1076 11.0348C13.7456 10.5678 13.2388 10.2343 12.6667 10.0866" stroke="#009966" stroke-width="1.33333" stroke-linecap="round" stroke-linejoin="round"></path><path d="M10.6667 2.08661C11.2403 2.23348 11.7487 2.56708 12.1118 3.03482C12.4748 3.50256 12.6719 4.07783 12.6719 4.66994C12.6719 5.26206 12.4748 5.83733 12.1118 6.30507C11.7487 6.77281 11.2403 7.10641 10.6667 7.25328" stroke="#009966" stroke-width="1.33333" stroke-linecap="round" stroke-linejoin="round"></path></svg>