<svg xmlns="http://www.w3.org/2000/svg" width="44" height="44" viewBox="0 0 44 44" fill="none"><path d="M0 10C0 4.47715 4.47715 0 10 0H34C39.5228 0 44 4.47715 44 10V34C44 39.5228 39.5228 44 34 44H10C4.47715 44 0 39.5228 0 34V10Z" fill="url(#paint0_linear_12_4794)"></path><path d="M28.6666 22.8335C28.6666 27.0002 25.75 29.0835 22.2833 30.2919C22.1018 30.3534 21.9046 30.3505 21.725 30.2835C18.25 29.0835 15.3333 27.0002 15.3333 22.8335V17.0002C15.3333 16.7792 15.4211 16.5672 15.5774 16.411C15.7337 16.2547 15.9456 16.1669 16.1666 16.1669C17.8333 16.1669 19.9166 15.1669 21.3666 13.9002C21.5432 13.7494 21.7678 13.6665 22 13.6665C22.2322 13.6665 22.4568 13.7494 22.6333 13.9002C24.0916 15.1752 26.1666 16.1669 27.8333 16.1669C28.0543 16.1669 28.2663 16.2547 28.4226 16.411C28.5788 16.5672 28.6666 16.7792 28.6666 17.0002V22.8335Z" stroke="white" stroke-width="1.66667" stroke-linecap="round" stroke-linejoin="round"></path><defs><linearGradient id="paint0_linear_12_4794" x1="0" y1="0" x2="44" y2="44" gradientUnits="userSpaceOnUse"><stop stop-color="#009966"></stop><stop offset="1" stop-color="#00A63E"></stop></linearGradient></defs></svg>