<svg xmlns="http://www.w3.org/2000/svg" width="44" height="44" viewBox="0 0 44 44" fill="none"><path d="M0 10C0 4.47715 4.47715 0 10 0H34C39.5228 0 44 4.47715 44 10V34C44 39.5228 39.5228 44 34 44H10C4.47715 44 0 39.5228 0 34V10Z" fill="url(#paint0_linear_12_4803)"></path><path d="M15.3333 23.6667C15.1756 23.6673 15.021 23.623 14.8874 23.5392C14.7539 23.4554 14.6468 23.3354 14.5788 23.1931C14.5107 23.0509 14.4844 22.8922 14.5029 22.7356C14.5214 22.579 14.584 22.4309 14.6833 22.3084L22.9333 13.8084C22.9952 13.737 23.0795 13.6887 23.1725 13.6715C23.2654 13.6543 23.3614 13.6692 23.4447 13.7138C23.5281 13.7584 23.5938 13.83 23.6311 13.9168C23.6684 14.0037 23.675 14.1006 23.65 14.1917L22.05 19.2084C22.0028 19.3347 21.9869 19.4705 22.0038 19.6042C22.0206 19.738 22.0697 19.8656 22.1467 19.9762C22.2237 20.0869 22.3265 20.1771 22.446 20.2394C22.5656 20.3016 22.6985 20.3338 22.8333 20.3334H28.6666C28.8243 20.3329 28.9789 20.3771 29.1125 20.4609C29.2461 20.5447 29.3531 20.6648 29.4212 20.807C29.4893 20.9493 29.5156 21.1079 29.4971 21.2645C29.4786 21.4211 29.416 21.5693 29.3166 21.6917L21.0666 30.1917C21.0048 30.2632 20.9204 30.3114 20.8275 30.3286C20.7346 30.3458 20.6385 30.3309 20.5552 30.2863C20.4719 30.2417 20.4062 30.1701 20.3689 30.0833C20.3316 29.9965 20.3249 29.8995 20.35 29.8084L21.95 24.7917C21.9972 24.6655 22.013 24.5296 21.9961 24.3959C21.9793 24.2621 21.9303 24.1345 21.8532 24.0239C21.7762 23.9132 21.6735 23.823 21.5539 23.7608C21.4343 23.6985 21.3014 23.6663 21.1666 23.6667H15.3333Z" stroke="white" stroke-width="1.66667" stroke-linecap="round" stroke-linejoin="round"></path><defs><linearGradient id="paint0_linear_12_4803" x1="0" y1="0" x2="44" y2="44" gradientUnits="userSpaceOnUse"><stop stop-color="#009966"></stop><stop offset="1" stop-color="#00A63E"></stop></linearGradient></defs></svg>