<svg xmlns="http://www.w3.org/2000/svg" width="44" height="44" viewBox="0 0 44 44" fill="none"><path d="M0 10C0 4.47715 4.47715 0 10 0H34C39.5228 0 44 4.47715 44 10V34C44 39.5228 39.5228 44 34 44H10C4.47715 44 0 39.5228 0 34V10Z" fill="url(#paint0_linear_12_4826)"></path><g clip-path="url(#clip0_12_4826)"><path d="M22 30.3332C26.6024 30.3332 30.3334 26.6022 30.3334 21.9998C30.3334 17.3975 26.6024 13.6665 22 13.6665C17.3976 13.6665 13.6667 17.3975 13.6667 21.9998C13.6667 26.6022 17.3976 30.3332 22 30.3332Z" stroke="white" stroke-width="1.66667" stroke-linecap="round" stroke-linejoin="round"></path><path d="M22 17V22L25.3333 23.6667" stroke="white" stroke-width="1.66667" stroke-linecap="round" stroke-linejoin="round"></path></g><defs><linearGradient id="paint0_linear_12_4826" x1="0" y1="0" x2="44" y2="44" gradientUnits="userSpaceOnUse"><stop stop-color="#009966"></stop><stop offset="1" stop-color="#00A63E"></stop></linearGradient><clipPath id="clip0_12_4826"><rect width="20" height="20" fill="white" transform="translate(12 12)"></rect></clipPath></defs></svg>