<svg xmlns="http://www.w3.org/2000/svg" width="36" height="36" viewBox="0 0 36 36" fill="none"><path d="M0 18C0 8.05888 8.05888 0 18 0C27.9411 0 36 8.05888 36 18C36 27.9411 27.9411 36 18 36C8.05888 36 0 27.9411 0 18Z" fill="#7CCF00"></path><path d="M26.1675 16.3336C26.5481 18.2013 26.2768 20.1431 25.399 21.8351C24.5212 23.527 23.0899 24.8669 21.3438 25.6313C19.5976 26.3957 17.6422 26.5384 15.8036 26.0355C13.965 25.5327 12.3543 24.4147 11.2402 22.8681C10.1261 21.3214 9.57593 19.4396 9.68139 17.5364C9.78684 15.6332 10.5416 13.8236 11.8197 12.4095C13.0979 10.9954 14.8221 10.0623 16.7051 9.76561C18.588 9.46897 20.5157 9.82679 22.1667 10.7794" stroke="#002C22" stroke-width="1.66667" stroke-linecap="round" stroke-linejoin="round"></path><path d="M15.5 17.1668L18 19.6668L26.3333 11.3335" stroke="#002C22" stroke-width="1.66667" stroke-linecap="round" stroke-linejoin="round"></path></svg>