<svg xmlns="http://www.w3.org/2000/svg" width="19" height="19" viewBox="0 0 19 19" fill="none"><path d="M7.44623 12.0835C7.37183 11.7951 7.22151 11.5319 7.01091 11.3213C6.80031 11.1107 6.53712 10.9604 6.24873 10.886L1.13623 9.56769C1.04901 9.54293 0.972239 9.4904 0.917576 9.41806C0.862912 9.34572 0.833336 9.25752 0.833336 9.16685C0.833336 9.07618 0.862912 8.98799 0.917576 8.91565C0.972239 8.84331 1.04901 8.79078 1.13623 8.76602L6.24873 7.44685C6.53702 7.37253 6.80014 7.22233 7.01073 7.01189C7.22133 6.80144 7.3717 6.53843 7.44623 6.25019L8.76456 1.13769C8.78907 1.05012 8.84155 0.972972 8.914 0.918016C8.98645 0.86306 9.07488 0.833313 9.16581 0.833313C9.25675 0.833313 9.34518 0.86306 9.41763 0.918016C9.49008 0.972972 9.54256 1.05012 9.56707 1.13769L10.8846 6.25019C10.959 6.53858 11.1093 6.80177 11.3199 7.01237C11.5305 7.22297 11.7937 7.37329 12.0821 7.44769L17.1946 8.76519C17.2825 8.78944 17.36 8.84186 17.4153 8.91442C17.4705 8.98697 17.5004 9.07566 17.5004 9.16685C17.5004 9.25805 17.4705 9.34673 17.4153 9.41929C17.36 9.49185 17.2825 9.54427 17.1946 9.56852L12.0821 10.886C11.7937 10.9604 11.5305 11.1107 11.3199 11.3213C11.1093 11.5319 10.959 11.7951 10.8846 12.0835L9.56623 17.196C9.54173 17.2836 9.48925 17.3607 9.4168 17.4157C9.34435 17.4706 9.25591 17.5004 9.16498 17.5004C9.07405 17.5004 8.98561 17.4706 8.91317 17.4157C8.84072 17.3607 8.78824 17.2836 8.76373 17.196L7.44623 12.0835Z" stroke="#002C22" stroke-width="1.66667" stroke-linecap="round" stroke-linejoin="round"></path></svg>