<svg xmlns="http://www.w3.org/2000/svg" width="15" height="16" viewBox="0 0 15 16" fill="none"><path d="M3.15998 15.4C3.15998 15.2267 3.12665 15.14 3.05998 15.14L2.59998 15.36C2.59998 15.2667 2.54665 15.2 2.43998 15.16L2.27998 15.14C2.17331 15.14 2.03998 15.1867 1.87998 15.28C1.85331 15.2134 1.81998 15.1467 1.77998 15.08C1.73998 15.0134 1.70665 14.9534 1.67998 14.9C1.50665 14.5667 1.33331 14.2 1.15998 13.8C0.999981 13.3867 0.846647 12.9934 0.699981 12.62C0.566647 12.2467 0.459981 11.9534 0.37998 11.74C0.326647 11.5667 0.266647 11.3067 0.199981 10.96C0.133314 10.6134 0.0666472 10.1734 -1.94758e-05 9.64002C0.146647 9.73335 0.259981 9.78002 0.339981 9.78002C0.433314 9.78002 0.519981 9.64002 0.59998 9.36002C0.639981 9.41335 0.713314 9.44002 0.819981 9.44002C0.899981 9.44002 0.959981 9.41335 0.999981 9.36002L1.31998 8.88002L1.67998 9.00002H1.69998C1.72665 9.00002 1.75331 8.98669 1.77998 8.96002C1.80665 8.93335 1.84665 8.90669 1.89998 8.88002C2.00665 8.81335 2.08665 8.78002 2.13998 8.78002L2.19998 8.80002C2.53331 8.96002 2.74665 9.25335 2.83998 9.68002C3.07998 10.6934 3.31998 11.2 3.55998 11.2C3.79998 11.2 4.07998 10.9467 4.39998 10.44C4.55998 10.1867 4.71998 9.89335 4.87998 9.56002C5.05331 9.22669 5.22665 8.85335 5.39998 8.44002C5.42665 8.60002 5.45331 8.68002 5.47998 8.68002C5.54665 8.68002 5.65998 8.51335 5.81998 8.18002C5.99331 7.84669 6.26665 7.38669 6.63998 6.80002C6.85331 6.44002 7.11998 6.03335 7.43998 5.58002C7.77331 5.12669 8.12665 4.66002 8.49998 4.18002C8.87331 3.70002 9.23331 3.24669 9.57998 2.82002C9.93998 2.39335 10.26 2.02669 10.54 1.72002C10.82 1.41335 11.0266 1.21335 11.16 1.12002C11.6666 0.773352 12.0666 0.440019 12.36 0.120019C12.3466 0.213352 12.3266 0.300019 12.3 0.380019C12.2866 0.446686 12.28 0.493352 12.28 0.520019C12.28 0.573352 12.3066 0.600019 12.36 0.600019L12.92 0.320019V0.400019C12.92 0.506686 12.9466 0.560019 13 0.560019C13.04 0.560019 13.12 0.500019 13.24 0.380019C13.36 0.260019 13.4266 0.173352 13.44 0.120019L13.4 0.400019L14.08 1.93119e-05L13.92 0.360019C14.1333 0.213352 14.2866 0.140019 14.38 0.140019C14.4333 0.140019 14.4733 0.173352 14.5 0.240019C14.5266 0.293352 14.54 0.346685 14.54 0.400019C14.54 0.480019 14.5066 0.573352 14.44 0.680019C14.3733 0.786686 14.2866 0.913352 14.18 1.06002C14.1 1.16669 13.9666 1.32669 13.78 1.54002C13.6066 1.74002 13.34 2.04002 12.98 2.44002C12.62 2.82669 12.14 3.36669 11.54 4.06002C11.38 4.23335 11.1333 4.54002 10.8 4.98002C10.4666 5.40669 10.0866 5.90669 9.65998 6.48002C9.24665 7.04002 8.83331 7.60669 8.41998 8.18002C8.00665 8.75335 7.63998 9.27335 7.31998 9.74002C6.99998 10.1934 6.77331 10.5334 6.63998 10.76L5.39998 12.86C5.13331 13.3134 4.91331 13.6867 4.73998 13.98C4.56665 14.26 4.43331 14.4534 4.33998 14.56C4.13998 14.8 3.91998 15.0134 3.67998 15.2L3.49998 15.1L3.33998 15.2L3.15998 15.4Z" fill="#9AE600"></path></svg>