<svg xmlns="http://www.w3.org/2000/svg" width="64" height="70" viewBox="0 0 64 70" fill="none"><path d="M4 16C4 7.16344 11.1634 0 20 0H44C52.8366 0 60 7.16344 60 16V40C60 48.8366 52.8366 56 44 56H20C11.1634 56 4 48.8366 4 40V16Z" fill="#2B7FFF" fill-opacity="0.1"></path><g filter="url(#filter0_dd_1_276)"><path d="M12 22C12 14.268 18.268 8 26 8H38C45.732 8 52 14.268 52 22V34C52 41.732 45.732 48 38 48H26C18.268 48 12 41.732 12 34V22Z" fill="url(#paint0_linear_1_276)" shape-rendering="crispEdges"></path><path d="M31.6041 19.9125C31.6406 19.8387 31.6971 19.7766 31.767 19.7332C31.837 19.6898 31.9176 19.6667 32 19.6667C32.0823 19.6667 32.163 19.6898 32.2329 19.7332C32.3029 19.7766 32.3593 19.8387 32.3958 19.9125L34.3208 23.8117C34.4476 24.0683 34.6348 24.2903 34.8663 24.4587C35.0978 24.6271 35.3667 24.7368 35.65 24.7783L39.955 25.4083C40.0365 25.4201 40.1132 25.4546 40.1762 25.5077C40.2392 25.5608 40.2862 25.6304 40.3116 25.7088C40.3371 25.7872 40.3402 25.8712 40.3205 25.9512C40.3007 26.0312 40.259 26.1041 40.2 26.1617L37.0866 29.1933C36.8813 29.3934 36.7277 29.6404 36.639 29.913C36.5503 30.1856 36.5292 30.4757 36.5775 30.7583L37.3125 35.0417C37.3269 35.1232 37.3181 35.2071 37.287 35.2839C37.256 35.3607 37.2041 35.4272 37.1371 35.4758C37.0701 35.5245 36.9908 35.5533 36.9082 35.5591C36.8256 35.5648 36.743 35.5472 36.67 35.5083L32.8216 33.485C32.5681 33.3518 32.2859 33.2823 31.9995 33.2823C31.7131 33.2823 31.431 33.3518 31.1775 33.485L27.33 35.5083C27.2569 35.547 27.1745 35.5644 27.092 35.5585C27.0096 35.5527 26.9304 35.5238 26.8635 35.4752C26.7967 35.4266 26.7448 35.3601 26.7138 35.2835C26.6829 35.2069 26.674 35.1231 26.6883 35.0417L27.4225 30.7592C27.471 30.4764 27.45 30.1862 27.3612 29.9134C27.2725 29.6406 27.1188 29.3935 26.9133 29.1933L23.8 26.1625C23.7405 26.105 23.6983 26.032 23.6783 25.9517C23.6582 25.8715 23.6612 25.7872 23.6867 25.7085C23.7122 25.6298 23.7594 25.5599 23.8227 25.5066C23.886 25.4534 23.963 25.4191 24.045 25.4075L28.3491 24.7783C28.6327 24.7371 28.902 24.6275 29.1338 24.4591C29.3656 24.2908 29.5531 24.0686 29.68 23.8117L31.6041 19.9125Z" stroke="white" stroke-width="1.66667" stroke-linecap="round" stroke-linejoin="round"></path></g><defs><filter id="filter0_dd_1_276" x="0" y="6" width="64" height="64" filterUnits="userSpaceOnUse" color-interpolation-filters="sRGB"></filter><linearGradient id="paint0_linear_1_276" x1="12" y1="8" x2="52" y2="48" gradientUnits="userSpaceOnUse"><stop stop-color="#2B7FFF"></stop><stop offset="1" stop-color="#4F39F6"></stop></linearGradient></defs></svg>