<svg xmlns="http://www.w3.org/2000/svg" width="48" height="48" viewBox="0 0 48 48" fill="none"><path d="M0 14C0 6.26801 6.26801 0 14 0H34C41.732 0 48 6.26801 48 14V34C48 41.732 41.732 48 34 48H14C6.26801 48 0 41.732 0 34V14Z" fill="white" fill-opacity="0.1"></path><path d="M33 27C33 27.5304 32.7893 28.0391 32.4142 28.4142C32.0391 28.7893 31.5304 29 31 29H19L15 33V17C15 16.4696 15.2107 15.9609 15.5858 15.5858C15.9609 15.2107 16.4696 15 17 15H31C31.5304 15 32.0391 15.2107 32.4142 15.5858C32.7893 15.9609 33 16.4696 33 17V27Z" stroke="#FF6467" stroke-width="2" stroke-linecap="round" stroke-linejoin="round"></path><path d="M24 19V21" stroke="#FF6467" stroke-width="2" stroke-linecap="round" stroke-linejoin="round"></path><path d="M24 25H24.01" stroke="#FF6467" stroke-width="2" stroke-linecap="round" stroke-linejoin="round"></path></svg>