<svg xmlns="http://www.w3.org/2000/svg" width="64" height="70" viewBox="0 0 64 70" fill="none"><path d="M4 16C4 7.16344 11.1634 0 20 0H44C52.8366 0 60 7.16344 60 16V40C60 48.8366 52.8366 56 44 56H20C11.1634 56 4 48.8366 4 40V16Z" fill="#8E51FF" fill-opacity="0.1"></path><g filter="url(#filter0_dd_1_258)"><path d="M12 22C12 14.268 18.268 8 26 8H38C45.732 8 52 14.268 52 22V34C52 41.732 45.732 48 38 48H26C18.268 48 12 41.732 12 34V22Z" fill="url(#paint0_linear_1_258)" shape-rendering="crispEdges"></path><path d="M34.8975 28.7416L36.16 35.8466C36.1741 35.9303 36.1624 36.0163 36.1264 36.0931C36.0903 36.1699 36.0317 36.2339 35.9583 36.2765C35.8849 36.3191 35.8002 36.3382 35.7157 36.3314C35.6311 36.3246 35.5506 36.2921 35.485 36.2383L32.5017 33.9991C32.3576 33.8915 32.1827 33.8334 32.0029 33.8334C31.8231 33.8334 31.6482 33.8915 31.5042 33.9991L28.5158 36.2375C28.4503 36.2912 28.3699 36.3236 28.2854 36.3304C28.2009 36.3373 28.1164 36.3182 28.0431 36.2757C27.9697 36.2332 27.9111 36.1694 27.8749 36.0927C27.8388 36.0161 27.8269 35.9302 27.8408 35.8466L29.1025 28.7416" stroke="white" stroke-width="1.66667" stroke-linecap="round" stroke-linejoin="round"></path><path d="M32 29.6667C34.7614 29.6667 37 27.4281 37 24.6667C37 21.9053 34.7614 19.6667 32 19.6667C29.2386 19.6667 27 21.9053 27 24.6667C27 27.4281 29.2386 29.6667 32 29.6667Z" stroke="white" stroke-width="1.66667" stroke-linecap="round" stroke-linejoin="round"></path></g><defs><filter id="filter0_dd_1_258" x="-3.8147e-06" y="6" width="64" height="64" filterUnits="userSpaceOnUse" color-interpolation-filters="sRGB"></filter><linearGradient id="paint0_linear_1_258" x1="12" y1="8" x2="52" y2="48" gradientUnits="userSpaceOnUse"><stop stop-color="#8E51FF"></stop><stop offset="1" stop-color="#9810FA"></stop></linearGradient></defs></svg>