<svg xmlns="http://www.w3.org/2000/svg" width="14" height="14" viewBox="0 0 14 14" fill="none"><g clip-path="url(#clip0_1_412)"><path d="M11.6666 7.58343C11.6666 10.5001 9.62498 11.9584 7.19831 12.8043C7.07124 12.8473 6.93321 12.8453 6.80748 12.7984C4.37498 11.9584 2.33331 10.5001 2.33331 7.58343V3.5001C2.33331 3.34539 2.39477 3.19702 2.50417 3.08762C2.61356 2.97822 2.76194 2.91677 2.91665 2.91677C4.08331 2.91677 5.54165 2.21677 6.55665 1.3301C6.68023 1.22452 6.83744 1.1665 6.99998 1.1665C7.16252 1.1665 7.31973 1.22452 7.44331 1.3301C8.46415 2.2226 9.91665 2.91677 11.0833 2.91677C11.238 2.91677 11.3864 2.97822 11.4958 3.08762C11.6052 3.19702 11.6666 3.34539 11.6666 3.5001V7.58343Z" stroke="#FFA726" stroke-width="1.16667" stroke-linecap="round" stroke-linejoin="round"></path></g><defs><clipPath id="clip0_1_412"><rect width="14" height="14" fill="white"></rect></clipPath></defs></svg>