<svg xmlns="http://www.w3.org/2000/svg" width="14" height="14" viewBox="0 0 14 14" fill="none"><g clip-path="url(#clip0_1_426)"><path d="M1.75 6.41675H3.5C3.80942 6.41675 4.10617 6.53966 4.32496 6.75846C4.54375 6.97725 4.66667 7.274 4.66667 7.58341V9.33341C4.66667 9.64283 4.54375 9.93958 4.32496 10.1584C4.10617 10.3772 3.80942 10.5001 3.5 10.5001H2.91667C2.60725 10.5001 2.3105 10.3772 2.09171 10.1584C1.87292 9.93958 1.75 9.64283 1.75 9.33341V6.41675ZM1.75 6.41675C1.75 5.72731 1.8858 5.04462 2.14963 4.40766C2.41347 3.7707 2.80018 3.19194 3.28769 2.70444C3.7752 2.21693 4.35395 1.83022 4.99091 1.56638C5.62787 1.30254 6.31056 1.16675 7 1.16675C7.68944 1.16675 8.37213 1.30254 9.00909 1.56638C9.64605 1.83022 10.2248 2.21693 10.7123 2.70444C11.1998 3.19194 11.5865 3.7707 11.8504 4.40766C12.1142 5.04462 12.25 5.72731 12.25 6.41675M12.25 6.41675V9.33341C12.25 9.64283 12.1271 9.93958 11.9083 10.1584C11.6895 10.3772 11.3928 10.5001 11.0833 10.5001H10.5C10.1906 10.5001 9.89383 10.3772 9.67504 10.1584C9.45625 9.93958 9.33333 9.64283 9.33333 9.33341V7.58341C9.33333 7.274 9.45625 6.97725 9.67504 6.75846C9.89383 6.53966 10.1906 6.41675 10.5 6.41675H12.25Z" stroke="#009966" stroke-width="1.16667" stroke-linecap="round" stroke-linejoin="round"></path><path d="M12.25 9.33325V10.4999C12.25 11.1188 12.0042 11.7122 11.5666 12.1498C11.129 12.5874 10.5355 12.8333 9.91667 12.8333H7" stroke="#009966" stroke-width="1.16667" stroke-linecap="round" stroke-linejoin="round"></path></g><defs><clipPath id="clip0_1_426"><rect width="14" height="14" fill="white"></rect></clipPath></defs></svg>