<svg xmlns="http://www.w3.org/2000/svg" width="16" height="16" viewBox="0 0 16 16" fill="none"><g clip-path="url(#clip0_1_340)"><path d="M2.66665 9.33328C2.54049 9.33371 2.41681 9.29833 2.30995 9.23126C2.2031 9.1642 2.11747 9.06818 2.06302 8.95438C2.00856 8.84059 1.98751 8.71367 2.00232 8.58838C2.01712 8.4631 2.06717 8.34459 2.14665 8.24661L8.74665 1.44661C8.79616 1.38947 8.86362 1.35085 8.93797 1.3371C9.01232 1.32335 9.08913 1.33529 9.15581 1.37095C9.22248 1.40661 9.27504 1.46388 9.30488 1.53335C9.33471 1.60283 9.34004 1.68038 9.31998 1.75328L8.03999 5.76661C8.00224 5.86763 7.98957 5.97629 8.00305 6.08328C8.01653 6.19028 8.05576 6.2924 8.11738 6.3809C8.179 6.46939 8.26117 6.54162 8.35684 6.59139C8.4525 6.64115 8.55882 6.66696 8.66665 6.66661H13.3333C13.4595 6.66618 13.5832 6.70156 13.69 6.76863C13.7969 6.8357 13.8825 6.93171 13.937 7.04551C13.9914 7.15931 14.0125 7.28622 13.9977 7.41151C13.9828 7.53679 13.9328 7.65531 13.8533 7.75328L7.25332 14.5533C7.20381 14.6104 7.13635 14.649 7.062 14.6628C6.98765 14.6765 6.91084 14.6646 6.84416 14.6289C6.77749 14.5933 6.72493 14.536 6.69509 14.4665C6.66526 14.3971 6.65993 14.3195 6.67999 14.2466L7.95998 10.2333C7.99773 10.1323 8.0104 10.0236 7.99692 9.91661C7.98344 9.80962 7.94421 9.70749 7.88259 9.619C7.82097 9.5305 7.7388 9.45827 7.64313 9.40851C7.54747 9.35874 7.44115 9.33293 7.33332 9.33328H2.66665Z" stroke="#FFA726" stroke-width="1.33333" stroke-linecap="round" stroke-linejoin="round"></path></g><defs><clipPath id="clip0_1_340"><rect width="16" height="16" fill="white"></rect></clipPath></defs></svg>